<svg width="85" height="85" viewBox="0 0 85 85" fill="none" xmlns="http://www.w3.org/2000/svg">
<path d="M42.5007 62.3542C46.9277 62.3542 50.6913 60.8053 53.7915 57.7075C56.8916 54.6097 58.4405 50.8461 58.4382 46.4167C58.4358 41.9872 56.8869 38.2248 53.7915 35.1294C50.6961 32.034 46.9325 30.4839 42.5007 30.4792C38.0688 30.4744 34.3064 32.0245 31.2134 35.1294C28.1203 38.2342 26.5702 41.9967 26.5632 46.4167C26.5561 50.8367 28.1061 54.6003 31.2134 57.7075C34.3206 60.8147 38.083 62.3636 42.5007 62.3542ZM42.5007 55.2708C40.0215 55.2708 37.926 54.4149 36.2142 52.7031C34.5024 50.9913 33.6465 48.8958 33.6465 46.4167C33.6465 43.9375 34.5024 41.842 36.2142 40.1302C37.926 38.4184 40.0215 37.5625 42.5007 37.5625C44.9798 37.5625 47.0753 38.4184 48.7871 40.1302C50.4989 41.842 51.3548 43.9375 51.3548 46.4167C51.3548 48.8958 50.4989 50.9913 48.7871 52.7031C47.0753 54.4149 44.9798 55.2708 42.5007 55.2708ZM14.1673 74.75C12.2194 74.75 10.5525 74.057 9.16648 72.671C7.78051 71.2851 7.08635 69.6169 7.08398 67.6667V25.1667C7.08398 23.2188 7.77815 21.5518 9.16648 20.1658C10.5548 18.7799 12.2218 18.0857 14.1673 18.0833H25.3236L31.8757 11H53.1257L59.6777 18.0833H70.834C72.7819 18.0833 74.45 18.7775 75.8384 20.1658C77.2267 21.5542 77.9197 23.2211 77.9173 25.1667V67.6667C77.9173 69.6146 77.2243 71.2827 75.8384 72.671C74.4524 74.0594 72.7843 74.7524 70.834 74.75H14.1673Z" fill="#717171"/>
</svg>
